<?xml version="1.0" standalone="no"?><!DOCTYPE svg PUBLIC "-//W3C//DTD SVG 1.1//EN" "http://www.w3.org/Graphics/SVG/1.1/DTD/svg11.dtd">
<svg
  t="1748267478827"
  class="icon"
  viewBox="0 0 1024 1024"
  version="1.1"
  xmlns="http://www.w3.org/2000/svg"
  p-id="1172"
  xmlns:xlink="http://www.w3.org/1999/xlink"
  width="200"
  height="200"
>
  <path
    d="M515.072 969.728c-2.048 0-4.608-0.512-6.656-1.024A528.2816 528.2816 0 0 1 121.856 460.8V208.896c0-13.312 10.24-24.576 23.552-25.6 148.992-10.752 278.016-58.88 344.576-129.536 9.728-10.24 27.648-10.24 37.376 0 66.56 70.656 195.584 119.296 344.576 129.536 13.312 1.024 23.552 12.288 23.552 25.6v263.68c0 55.296-9.216 109.568-26.624 161.792a25.6 25.6 0 0 1-32.256 16.384 26.112 26.112 0 0 1-16.384-32.256c15.872-47.104 23.552-95.744 23.552-145.408v-240.64c-139.264-13.824-261.632-59.392-335.872-125.44C434.176 173.056 312.32 218.624 173.056 232.448V460.8c0 210.432 140.288 397.312 342.016 456.704 59.392-17.92 113.152-46.592 160.768-86.016 10.752-9.216 27.136-7.68 35.84 3.584 9.216 10.752 7.68 27.136-3.584 35.84-54.784 45.568-117.76 78.336-186.368 98.304-2.048 0-4.096 0.512-6.656 0.512z"
    p-id="1173"
  ></path>
  <path
    d="M537.6 716.8C438.784 716.8 358.4 636.416 358.4 537.6S438.784 358.4 537.6 358.4 716.8 438.784 716.8 537.6 636.416 716.8 537.6 716.8z m0-307.2a128 128 0 0 0 0 256 128 128 0 0 0 0-256z"
    p-id="1174"
  ></path>
  <path
    d="M791.04 816.64a24.064 24.064 0 0 1-17.92-7.68l-144.896-144.896c-10.24-10.24-10.24-26.112 0-36.352s26.112-10.24 36.352 0l144.896 144.896c10.24 10.24 10.24 26.112 0 36.352-5.12 5.12-11.776 7.68-18.432 7.68z"
    p-id="1175"
  ></path>
</svg>
