<?xml version="1.0" standalone="no"?><!DOCTYPE svg PUBLIC "-//W3C//DTD SVG 1.1//EN" "http://www.w3.org/Graphics/SVG/1.1/DTD/svg11.dtd">
<svg
  t="1748016891732"
  class="icon"
  viewBox="0 0 1024 1024"
  version="1.1"
  xmlns="http://www.w3.org/2000/svg"
  p-id="1019"
  xmlns:xlink="http://www.w3.org/1999/xlink"
  width="200"
  height="200"
>
  <path
    d="M820.736 657.92c-7.168 0-14.336-3.072-19.456-8.704l-100.864-115.2a25.9072 25.9072 0 0 1 2.56-36.352c10.752-9.216 26.624-8.192 36.352 2.56l81.408 93.184 81.408-93.184c9.216-10.752 25.6-11.776 36.352-2.56 10.752 9.216 11.776 25.6 2.56 36.352l-100.864 115.2c-5.12 5.632-12.288 8.704-19.456 8.704zM303.616 612.352c-7.168 0-14.336-3.072-19.456-8.704L203.264 510.464l-81.408 93.184c-9.216 10.752-25.6 11.776-36.352 2.56a25.856 25.856 0 0 1-2.56-36.352l100.864-115.2c4.608-5.632 11.776-8.704 19.456-8.704 7.168 0 14.336 3.072 19.456 8.704l100.352 115.2c9.216 10.752 8.192 26.624-2.56 36.352-5.12 4.096-10.752 6.144-16.896 6.144zM227.84 393.728c-4.096 0-7.68-1.024-11.776-2.56A26.624 26.624 0 0 1 204.8 356.352a345.4976 345.4976 0 0 1 608.768-11.776c6.656 12.288 2.56 28.16-9.728 34.816s-28.16 2.56-34.816-9.728a290.048 290.048 0 0 0-122.88-117.76 293.376 293.376 0 0 0-395.264 128c-4.608 8.704-13.824 13.824-23.04 13.824z"

    p-id="1020"
  ></path>
  <path
    d="M512.512 856.064c-75.264 0-150.528-24.576-214.016-74.752A341.6064 341.6064 0 0 1 167.936 512c0-14.336 11.264-25.6 25.6-25.6s25.6 11.264 25.6 25.6c0 90.112 40.96 173.568 111.104 229.376 126.976 100.864 312.32 79.36 412.672-47.616 8.704-11.264 25.088-12.8 35.84-4.096 11.264 8.704 12.8 25.088 4.096 35.84a342.4768 342.4768 0 0 1-270.336 130.56zM823.296 612.864c-2.048 0-4.096 0-6.144-0.512a25.4464 25.4464 0 0 1-18.944-30.72c16.896-71.68 6.656-146.432-29.184-210.432a25.856 25.856 0 1 1 45.056-25.6c41.984 75.264 54.272 163.328 34.304 247.296a25.6 25.6 0 0 1-25.088 19.968z"

    p-id="1021"
  ></path>
</svg>
